<svg width="36" height="36" fill="none" xmlns="http://www.w3.org/2000/svg"><path d="M35.574 6.037A1.8 1.8 0 0 0 34.2 5.4H.9a.9.9 0 1 0 0 1.8h9.875l-.3 1.8H6.3a.9.9 0 1 0 0 1.8h3.875l-.3 1.8H2.7a.9.9 0 1 0 0 1.8h6.875l-.3 1.8H8.1a.9.9 0 1 0 0 1.8h.875l-.3 1.8H4.5a.9.9 0 1 0 0 1.8h3.875l-1.15 6.904A1.8 1.8 0 0 0 9 30.6h21.6a1.8 1.8 0 0 0 1.776-1.504l3.6-21.6a1.8 1.8 0 0 0-.402-1.46ZM21.6 7.2h3.6l-.9 5.4h-3.6l.9-5.4Zm0 21.6H18l.9-5.4h3.6l-.9 5.4Zm9 0h-7.175l.85-5.104A1.8 1.8 0 0 0 22.5 21.6h-3.6a1.8 1.8 0 0 0-1.775 1.504L16.2 28.8H9l1.2-7.2h5.1a.9.9 0 1 0 0-1.8h-4.8l.3-1.8h2.7a.9.9 0 1 0 0-1.8h-2.4l.3-1.8h3.9a.9.9 0 1 0 0-1.8h-3.6l.3-1.8h5.1a.9.9 0 1 0 0-1.8h-4.8l.3-1.8h7.175l-.85 5.104A1.8 1.8 0 0 0 20.7 14.4h3.6a1.8 1.8 0 0 0 1.775-1.504L27 7.2h7.2l-3.6 21.6Z" fill="#F6A700"/></svg>