<svg width="36" height="36" fill="none" xmlns="http://www.w3.org/2000/svg"><g clip-path="url(#a)" fill="#F6A700"><path d="M36 9.296a4.06 4.06 0 0 0-4.055-4.055H4.055A4.06 4.06 0 0 0 0 9.296v17.408a4.06 4.06 0 0 0 4.055 4.055h27.89A4.06 4.06 0 0 0 36 26.704V9.296ZM4.055 7.698h27.89a1.6 1.6 0 0 1 1.598 1.598v2.234H2.457V9.296a1.6 1.6 0 0 1 1.598-1.598ZM33.543 17.82H2.457v-3.832h31.086v3.832Zm-1.598 10.482H4.055a1.6 1.6 0 0 1-1.598-1.598v-6.427h31.086v6.427a1.6 1.6 0 0 1-1.598 1.598Z"/><path d="M13.807 24.109H5.42a1.229 1.229 0 0 0 0 2.457h8.386a1.229 1.229 0 0 0 0-2.457Zm6.29 0H18a1.229 1.229 0 0 0 0 2.457h2.097a1.229 1.229 0 0 0 0-2.457Z"/></g><defs><clipPath id="a"><path fill="#fff" d="M0 0h36v36H0z"/></clipPath></defs></svg>