<svg width="36" height="36" fill="none" xmlns="http://www.w3.org/2000/svg"><path d="M16.904 2.974 7.826 9.783H1.174C.526 9.783 0 10.308 0 10.957v14.087c0 .648.526 1.174 1.174 1.174h6.652l9.079 6.809c.767.575 1.878.033 1.878-.94V3.913c0-.965-1.105-1.519-1.879-.939ZM7.044 23.87H2.348V12.13h4.696v11.74Zm9.39 5.87-7.043-5.283V11.544l7.044-5.283V29.74ZM30.85 5.549a1.174 1.174 0 0 0-1.66 1.66A15.157 15.157 0 0 1 33.653 18c0 4.081-1.584 7.914-4.462 10.791a1.174 1.174 0 0 0 1.66 1.66A17.49 17.49 0 0 0 36 18a17.49 17.49 0 0 0-5.15-12.451Z" fill="#F6A700"/><path d="M27.53 8.868a1.174 1.174 0 1 0-1.66 1.66c4.118 4.12 4.118 10.824 0 14.945a1.174 1.174 0 1 0 1.66 1.66c5.034-5.036 5.034-13.23 0-18.265Z" fill="#F6A700"/><path d="M24.211 12.19a1.174 1.174 0 0 0-1.66 1.66 5.88 5.88 0 0 1-.002 8.303 1.174 1.174 0 0 0 1.66 1.66c3.204-3.205 3.205-8.42.002-11.623Z" fill="#F6A700"/></svg>