<svg width="36" height="36" fill="none" xmlns="http://www.w3.org/2000/svg"><path d="M33.65 1.151H10.96a2.35 2.35 0 0 0-2.35 2.35v6.345h2.35V3.5h22.69v14.366h-3.8v2.35h3.799a2.35 2.35 0 0 0 2.35-2.35V3.501a2.35 2.35 0 0 0-2.35-2.35Z" fill="#F6A700"/><path d="M25.038 12.196H2.35A2.35 2.35 0 0 0 0 14.546v14.366a2.35 2.35 0 0 0 2.35 2.35h7.233l2.313 2.75a2.35 2.35 0 0 0 3.597 0l2.313-2.75h7.233a2.345 2.345 0 0 0 1.883-.944 2.34 2.34 0 0 0 .467-1.407V14.546a2.35 2.35 0 0 0-2.35-2.35Zm0 16.716h-8.326l-3.018 3.587-3.017-3.588H2.35V14.546h22.688v14.366Z" fill="#F6A700"/><path d="M6.268 20.194H21.12a1.175 1.175 0 0 0 0-2.35H6.268a1.175 1.175 0 0 0 0 2.35Zm0 5.309h6.08a1.175 1.175 0 0 0 0-2.35h-6.08a1.175 1.175 0 1 0 0 2.35Z" fill="#F6A700"/></svg>