<svg width="232" height="64" fill="none" xmlns="http://www.w3.org/2000/svg"><g clip-path="url(#a)"><path d="M88.172 1.323 68.248 53.468H78.95l4.095-10.895h21.142l4.112 10.895h10.623l-19.8-52.145h-10.95Zm-1.453 31.68 6.96-18.347 6.93 18.347h-13.89Zm44.995 7.018-8.642-23.185h-10.21l13.918 36.63h10.121l13.671-36.63h-10.21l-8.648 23.185Zm31.699-23.185h-9.717v36.63h9.717v-36.63Zm-4.864-2.639c1.879 0 3.68-.748 5.008-2.079a7.109 7.109 0 0 0 0-10.039 7.073 7.073 0 0 0-10.016 0 7.107 7.107 0 0 0 0 10.04 7.075 7.075 0 0 0 5.008 2.078Zm24.12-7.136h-9.689v9.711h-5.683V25.6h5.683v15.567c0 8.828 4.853 12.625 11.689 12.625 2.307.03 4.595-.418 6.72-1.316V43.4a10.8 10.8 0 0 1-3.618.66c-2.97 0-5.109-1.155-5.109-5.12V25.603h8.727v-8.74h-8.72V7.06Zm29.147 9.11a18.907 18.907 0 0 0-13.395 5.553 18.995 18.995 0 0 0-5.553 13.42 19.018 19.018 0 0 0 5.541 13.426 18.931 18.931 0 0 0 13.39 5.566 18.918 18.918 0 0 0 13.264-5.625 19.003 19.003 0 0 0 5.482-13.348 19 19 0 0 0-5.47-13.354 18.92 18.92 0 0 0-13.259-5.638Zm0 28.254a9.204 9.204 0 0 1-5.126-1.554 9.236 9.236 0 0 1-3.401-4.147 9.265 9.265 0 0 1 1.994-10.076 9.212 9.212 0 0 1 10.051-2.008 9.229 9.229 0 0 1 4.141 3.404 9.257 9.257 0 0 1 1.555 5.137 9.233 9.233 0 0 1-2.705 6.516 9.19 9.19 0 0 1-6.509 2.691v.037Z" fill="#000"/><path d="M22.552 18.24c3.908 0 7.077-3.176 7.077-7.093 0-3.918-3.169-7.094-7.077-7.094-3.909 0-7.077 3.176-7.077 7.094 0 3.917 3.168 7.093 7.077 7.093Z" fill="#965EEB"/><path d="M47.346 30.87c8.505 0 15.4-6.911 15.4-15.435C62.746 6.91 55.85 0 47.346 0c-8.504 0-15.399 6.91-15.399 15.435 0 8.524 6.895 15.434 15.4 15.434Z" fill="#0AF"/><path d="M18.943 58.667c10.462 0 18.943-8.501 18.943-18.987 0-10.486-8.48-18.987-18.943-18.987C8.481 20.693 0 29.193 0 39.68c0 10.486 8.481 18.987 18.943 18.987Z" fill="#04E061"/><path d="M51.774 56.277c6.319 0 11.44-5.133 11.44-11.466 0-6.333-5.121-11.467-11.44-11.467-6.318 0-11.44 5.134-11.44 11.467s5.122 11.466 11.44 11.466Z" fill="#FF4053"/></g><defs><clipPath id="a"><path fill="#fff" d="M0 0h232v64H0z"/></clipPath></defs></svg>