<svg width="677" height="72" fill="none" xmlns="http://www.w3.org/2000/svg"><path d="M.048 23V.6h4.48v9.12h12.256V.6h4.48V23h-4.48v-9.152H4.528V23H.048Zm44.299 0h-3.968l-.448-2.112c-1.632 1.632-3.968 2.592-6.688 2.592-5.312 0-9.312-3.616-9.312-8.448 0-4.896 3.968-8.512 9.312-8.512 2.688 0 5.056.928 6.688 2.592L40.379 7h3.968v16Zm-15.936-7.968c0 2.592 2.432 4.48 5.792 4.48 3.392 0 5.664-1.824 5.664-4.48 0-2.688-2.304-4.576-5.664-4.576s-5.792 1.92-5.792 4.576Zm19.051 4.096h2.336c1.088-1.792 1.632-3.904 1.632-6.368V7h15.424v12.128h2.816v8.032h-4.192V23H51.654v4.16h-4.192v-8.032Zm6.656 0h8.544V10.84h-7.104v1.984c0 2.368-.448 4.384-1.44 6.304Zm36.636-3.008H76.226c.48 2.304 2.528 3.84 5.216 3.84 1.92 0 3.457-.704 4.289-1.856h4.544c-1.217 3.264-4.64 5.376-9.025 5.376-5.504 0-9.632-3.616-9.632-8.448 0-4.896 4.097-8.512 9.633-8.512 5.471 0 9.567 3.424 9.567 8.512 0 .352 0 .736-.064 1.088Zm-14.528-2.24h9.984c-.447-2.272-2.335-3.744-4.96-3.744-2.591 0-4.543 1.504-5.023 3.744ZM115.953 15l7.968 8h-6.112l-5.952-5.952h-1.984V23h-4.48v-5.952h-1.984L97.456 23h-6.112l7.968-8-7.296-8h5.888l5.472 5.984h2.016V7h4.48v5.984h2.016L117.36 7h5.888l-7.296 8Zm10.002 8V7h4.48v5.92h10.464V7h4.48v16h-4.48v-5.952h-10.464V23h-4.48Zm42.987 0h-3.968l-.448-2.112c-1.632 1.632-3.968 2.592-6.688 2.592-5.312 0-9.312-3.616-9.312-8.448 0-4.896 3.968-8.512 9.312-8.512 2.688 0 5.056.928 6.688 2.592L164.973 7h3.968v16Zm-15.936-7.968c0 2.592 2.432 4.48 5.792 4.48 3.392 0 5.664-1.824 5.664-4.48 0-2.688-2.304-4.576-5.664-4.576s-5.792 1.92-5.792 4.576ZM176.728 23H171l4.48-4.736c-2.272-.96-3.872-2.88-3.872-5.28 0-3.616 3.296-5.984 7.456-5.984h10.016v16h-4.192v-4.032h-4.768L176.728 23Zm-.96-10.016c0 1.44 1.28 2.336 3.296 2.336h5.824v-4.704h-5.824c-1.984 0-3.296.928-3.296 2.368Zm33.215 10.496c-4.576 0-8.192-2.56-8.192-6.048h4.16c0 1.728 1.856 2.816 4.224 2.816 2.24 0 3.68-.8 3.68-2.048 0-1.312-1.408-2.112-4.032-2.112h-1.537v-2.56h1.473c2.56 0 3.648-.704 3.648-1.984 0-1.184-1.344-1.92-3.424-1.92-2.048 0-3.584 1.088-3.584 2.56h-4.16c0-3.168 3.328-5.632 7.584-5.632 4.8 0 8 1.824 8 4.544 0 1.664-.928 2.88-2.784 3.616 2.144.768 3.232 2.112 3.232 3.936 0 2.912-3.328 4.832-8.288 4.832Zm30.864-.48h-3.968l-.448-2.112c-1.632 1.632-3.968 2.592-6.688 2.592-5.312 0-9.312-3.616-9.312-8.448 0-4.896 3.968-8.512 9.312-8.512 2.688 0 5.056.928 6.688 2.592L235.879 7h3.968v16Zm-15.936-7.968c0 2.592 2.432 4.48 5.792 4.48 3.392 0 5.664-1.824 5.664-4.48 0-2.688-2.304-4.576-5.664-4.576s-5.792 1.92-5.792 4.576ZM243.954 23V7h4.48v11.84h7.968V7h4.48v11.84h8.032V7h4.48v11.84h3.616v9.28h-4.128V23h-28.928Zm55.132 0h-4.48v-9.792L283.854 23h-3.712V7h4.48v9.632L295.342 7h3.744v16Zm9.881 0V11.128h-7.264V7h18.912v4.128h-7.168V23h-4.48Zm33.349 0h-3.968l-.448-2.112c-1.632 1.632-3.968 2.592-6.688 2.592-5.312 0-9.312-3.616-9.312-8.448 0-4.896 3.968-8.512 9.312-8.512 2.688 0 5.056.928 6.688 2.592L338.348 7h3.968v16Zm-15.936-7.968c0 2.592 2.432 4.48 5.792 4.48 3.392 0 5.664-1.824 5.664-4.48 0-2.688-2.304-4.576-5.664-4.576s-5.792 1.92-5.792 4.576Zm27.051 0c0-4.896 4.16-8.512 9.792-8.512 5.696 0 9.824 3.424 9.824 8.512 0 4.992-4.128 8.448-9.824 8.448-5.6 0-9.792-3.616-9.792-8.448Zm4.48 0c0 2.496 2.272 4.288 5.312 4.288 3.2 0 5.344-1.792 5.344-4.288 0-2.56-2.144-4.384-5.344-4.384-3.072 0-5.312 1.824-5.312 4.384ZM381.56 23V11.128h-7.264V7h18.912v4.128h-7.168V23h-4.48Zm33.051 6.304h-4.736L412.147 23h-4.448l-5.824-16h4.736l4.256 11.712h2.848L417.939 7h4.704l-8.032 22.304ZM424.704 7h14.208v3.904h-9.728V23h-4.48V7Zm15.539 8.032c0-4.896 4.161-8.512 9.793-8.512 5.696 0 9.824 3.424 9.824 8.512 0 4.992-4.128 8.448-9.824 8.448-5.6 0-9.793-3.616-9.793-8.448Zm4.481 0c0 2.496 2.272 4.288 5.312 4.288 3.2 0 5.344-1.792 5.344-4.288 0-2.56-2.144-4.384-5.344-4.384-3.072 0-5.312 1.824-5.312 4.384ZM462.954 23V7h4.48v5.92h10.464V7h4.48v16h-4.48v-5.952h-10.464V23h-4.48Zm42.987 0h-3.968l-.448-2.112c-1.632 1.632-3.968 2.592-6.688 2.592-5.312 0-9.312-3.616-9.312-8.448 0-4.896 3.968-8.512 9.312-8.512 2.688 0 5.056.928 6.688 2.592L501.973 7h3.968v16Zm-15.936-7.968c0 2.592 2.432 4.48 5.792 4.48 3.392 0 5.664-1.824 5.664-4.48 0-2.688-2.304-4.576-5.664-4.576s-5.792 1.92-5.792 4.576ZM18.992 65h-4.48v-9.792L3.76 65H.048V49h4.48v9.632L15.248 49h3.744v16Zm12.025-16h18.208v16h-4.48V53.128h-9.248V65h-4.48V49Zm20.851 8.032c0-4.896 4.16-8.512 9.792-8.512 5.697 0 9.825 3.424 9.825 8.512 0 4.992-4.129 8.448-9.825 8.448-5.6 0-9.791-3.616-9.791-8.448Zm4.48 0c0 2.496 2.273 4.288 5.313 4.288 3.2 0 5.343-1.792 5.343-4.288 0-2.56-2.144-4.384-5.344-4.384-3.071 0-5.311 1.824-5.311 4.384Zm20.317.032L77.561 49h16.416v16h-4.48V53.128h-7.904l-.48 4.256c-.704 5.888-2.752 8.096-7.776 8.096v-4.096c2.08 0 2.976-1.152 3.328-4.32ZM98.08 65V49h4.48v5.92h10.464V49h4.48v16h-4.48v-5.952H102.56V65h-4.48Zm23.563-16h4.48v4.032h5.92c5.088 0 8.128 2.208 8.128 5.952 0 3.936-2.816 6.016-8.128 6.016h-10.4V49Zm21.12 0h4.48v16h-4.48V49Zm-7.072 9.984c0-1.568-1.376-2.592-3.648-2.592h-5.92v5.184h5.92c2.304 0 3.648-.96 3.648-2.592Zm25.111-11.648c-3.008 0-6.496-1.696-6.496-4.736h3.424c0 1.12 1.344 1.952 3.072 1.952s3.008-.8 3.008-1.952h3.456c0 2.688-2.752 4.736-6.464 4.736ZM170.273 65h-4.48v-9.792L155.041 65h-3.712V49h4.48v9.632L166.529 49h3.744v16Zm11.033-3.872h2.336c1.088-1.792 1.632-3.904 1.632-6.368V49h15.424v12.128h2.816v8.032h-4.192V65h-13.824v4.16h-4.192v-8.032Zm6.656 0h8.544V52.84h-7.104v1.984c0 2.368-.448 4.384-1.44 6.304ZM225.555 65h-4.48v-9.792L210.323 65h-3.712V49h4.48v9.632L221.811 49h3.744v16Zm7.512-7.968c0 2.56 2.272 4.352 5.312 4.352 2.432 0 4.224-.96 4.96-2.624h4.64c-.832 4.064-4.64 6.72-9.6 6.72-5.6 0-9.792-3.616-9.792-8.448 0-4.896 4.16-8.512 9.792-8.512 4.928 0 8.704 2.592 9.568 6.688h-4.64c-.736-1.632-2.528-2.624-4.928-2.624-3.072 0-5.312 1.856-5.312 4.448ZM256.748 65V53.128h-7.264V49h18.912v4.128h-7.168V65h-4.48Zm33.349 0h-3.968l-.448-2.112c-1.632 1.632-3.968 2.592-6.688 2.592-5.312 0-9.312-3.616-9.312-8.448 0-4.896 3.968-8.512 9.312-8.512 2.688 0 5.056.928 6.688 2.592l.448-2.112h3.968v16Zm-15.936-7.968c0 2.592 2.432 4.48 5.792 4.48 3.392 0 5.664-1.824 5.664-4.48 0-2.688-2.304-4.576-5.664-4.576s-5.792 1.92-5.792 4.576ZM294.204 65V49h4.48v5.92h10.464V49h4.48v16h-4.48v-5.952h-10.464V65h-4.48Zm23.563 0V49h4.48v11.84h10.752V49h4.48v11.84h3.264v9.28h-4.16V65h-18.816Zm45.069 0h-4.48v-9.792L347.604 65h-3.712V49h4.48v9.632L359.092 49h3.744v16Zm3.032-7.968c0-4.896 4.161-8.512 9.793-8.512 5.696 0 9.824 3.424 9.824 8.512 0 4.992-4.128 8.448-9.824 8.448-5.6 0-9.793-3.616-9.793-8.448Zm4.481 0c0 2.496 2.272 4.288 5.312 4.288 3.2 0 5.344-1.792 5.344-4.288 0-2.56-2.144-4.384-5.344-4.384-3.072 0-5.312 1.824-5.312 4.384ZM388.579 65V49h4.48v5.92h10.464V49h4.48v16h-4.48v-5.952h-10.464V65h-4.48Zm23.563 0V49h4.48v5.92h10.464V49h4.48v16h-4.48v-5.952h-10.464V65h-4.48Zm23.562-16h4.48v4.032h5.92c5.088 0 8.128 2.208 8.128 5.952 0 3.936-2.816 6.016-8.128 6.016h-10.4V49Zm21.12 0h4.48v16h-4.48V49Zm-7.072 9.984c0-1.568-1.376-2.592-3.648-2.592h-5.92v5.184h5.92c2.304 0 3.648-.96 3.648-2.592Zm25.112-11.648c-3.008 0-6.496-1.696-6.496-4.736h3.424c0 1.12 1.344 1.952 3.072 1.952s3.008-.8 3.008-1.952h3.456c0 2.688-2.752 4.736-6.464 4.736ZM484.336 65h-4.48v-9.792L469.104 65h-3.712V49h4.48v9.632L480.592 49h3.744v16Zm16.505-5.952V65h-4.48V49h4.48v5.984h1.984L508.329 49h5.888l-7.328 8 7.968 8h-6.08l-5.984-5.952h-1.952Zm14.465-2.016c0-4.896 4.16-8.512 9.792-8.512 5.696 0 9.824 3.424 9.824 8.512 0 4.992-4.128 8.448-9.824 8.448-5.6 0-9.792-3.616-9.792-8.448Zm4.48 0c0 2.496 2.272 4.288 5.312 4.288 3.2 0 5.344-1.792 5.344-4.288 0-2.56-2.144-4.384-5.344-4.384-3.072 0-5.312 1.824-5.312 4.384ZM538.017 65V49h4.48v5.92h10.464V49h4.48v16h-4.48v-5.952h-10.464V65h-4.48Zm29.418 0V53.128h-7.264V49h18.912v4.128h-7.168V65h-4.48Zm14.363-16h4l.416 2.048c1.632-1.6 3.968-2.528 6.656-2.528 5.312 0 9.312 3.616 9.312 8.448 0 4.896-3.968 8.512-9.312 8.512-2.656 0-4.96-.896-6.592-2.496V71.4h-4.48V49Zm15.904 7.968c0-2.624-2.432-4.512-5.792-4.512s-5.632 1.856-5.632 4.512c0 2.688 2.272 4.544 5.632 4.544 3.424 0 5.792-1.92 5.792-4.544Zm6.635.064c0-4.896 4.16-8.512 9.792-8.512 5.696 0 9.824 3.424 9.824 8.512 0 4.992-4.128 8.448-9.824 8.448-5.6 0-9.792-3.616-9.792-8.448Zm4.48 0c0 2.496 2.272 4.288 5.312 4.288 3.2 0 5.344-1.792 5.344-4.288 0-2.56-2.144-4.384-5.344-4.384-3.072 0-5.312 1.824-5.312 4.384Zm20.317.032L630.03 49h16.416v16h-4.48V53.128h-7.904l-.48 4.256c-.704 5.888-2.752 8.096-7.776 8.096v-4.096c2.08 0 2.976-1.152 3.328-4.32ZM650.548 49h4.48v4.032h5.92c5.088 0 8.128 2.208 8.128 5.952 0 3.936-2.816 6.016-8.128 6.016h-10.4V49Zm14.048 9.984c0-1.568-1.376-2.592-3.648-2.592h-5.92v5.184h5.92c2.304 0 3.648-.96 3.648-2.592Zm12.249-6.944-.608 6.624h-3.328l-.544-6.624V42.6h4.48v9.44Zm-4.608 11.104c0-1.344.928-2.304 2.368-2.304 1.376 0 2.304.96 2.304 2.304 0 1.44-.928 2.336-2.304 2.336-1.44 0-2.368-.896-2.368-2.336Z" fill="#D9D9D9"/></svg>