<svg width="32" height="32" fill="none" xmlns="http://www.w3.org/2000/svg"><g clip-path="url(#a)"><g clip-path="url(#b)"><path d="M16 28.631c-.368-.125-11.775-3.806-12.65-20.812.438.031 7.644.7 12.65-3.981 4.932 4.612 12.213 4.006 12.65 3.98C27.575 25.332 16.37 28.507 16 28.632Zm13.982-23.55c-2.67.407-8.732.688-13.132-4.025a1.153 1.153 0 0 0-1.693 0C10.75 5.77 4.687 5.488 2.019 5.081a1.152 1.152 0 0 0-1.331 1.17C1.307 28.155 16 31.312 16 31.312s14.694-3.15 15.313-25.063a1.152 1.152 0 0 0-1.331-1.169Z" fill="#F6A700"/></g></g><defs><clipPath id="a"><path fill="#fff" d="M0 0h32v32H0z"/></clipPath><clipPath id="b"><path fill="#fff" d="M0 0h32v32H0z"/></clipPath></defs></svg>