<svg width="32" height="32" fill="none" xmlns="http://www.w3.org/2000/svg"><g clip-path="url(#a)"><path d="m26.984 22.622-3.892-.93-4.34-4.34 3.344-3.338a7.245 7.245 0 0 0 7.503-1.701 7.222 7.222 0 0 0 1.44-8.14l-.59-1.268-3.52 3.51-1.633-1.63 3.52-3.512-1.274-.592a7.25 7.25 0 0 0-8.15 1.439 7.227 7.227 0 0 0-1.706 7.49l-1.315 1.313-9.692-9.691A3.813 3.813 0 0 0 3.964.104H3.96a3.82 3.82 0 0 0-2.717 1.124 3.819 3.819 0 0 0-1.127 2.72 3.82 3.82 0 0 0 1.127 2.718l9.69 9.689-1.319 1.316a7.254 7.254 0 0 0-7.502 1.701 7.222 7.222 0 0 0-1.442 8.14l.592 1.268 3.518-3.51 1.634 1.63-3.52 3.512 1.274.591a7.244 7.244 0 0 0 8.15-1.438 7.227 7.227 0 0 0 1.706-7.49l3.34-3.336 4.34 4.34.93 3.892 5.017 5.016L32 27.638l-5.016-5.016ZM19.729 9.43a5.255 5.255 0 0 1 1.05-5.92 5.284 5.284 0 0 1 4.5-1.479l-2.76 2.754 4.41 4.403 2.763-2.756a5.26 5.26 0 0 1-1.48 4.493 5.282 5.282 0 0 1-5.937 1.048l-.621-.29-2.263 2.26-1.633-1.632 2.26-2.258-.29-.623ZM2.079 3.947a1.866 1.866 0 0 1 .55-1.331 1.87 1.87 0 0 1 1.33-.55c.505 0 .976.196 1.331.552l12.713 12.711-2.663 2.659L2.63 5.278a1.87 1.87 0 0 1-.552-1.33Zm8.853 24.23a5.284 5.284 0 0 1-4.501 1.477l2.76-2.753-4.41-4.403-2.763 2.755a5.26 5.26 0 0 1 1.48-4.492 5.282 5.282 0 0 1 5.937-1.048l.621.289 2.264-2.26 1.632 1.632-2.26 2.259.29.623a5.255 5.255 0 0 1-1.05 5.92Zm13.482-2.201-.495-2.07 2.07.495 3.237 3.237-1.575 1.575-3.237-3.237Z" fill="#F6A700"/></g><defs><clipPath id="a"><path fill="#fff" d="M0 0h32v32H0z"/></clipPath></defs></svg>