<svg width="32" height="32" fill="none" xmlns="http://www.w3.org/2000/svg"><g clip-path="url(#a)"><g clip-path="url(#b)"><g clip-path="url(#c)"><g clip-path="url(#d)"><path d="M11.44 25.407c-3.588-1.74-5.906-5.439-5.906-9.424a10.45 10.45 0 0 1 4.7-8.736.806.806 0 1 0-.89-1.345c-.166.11-.328.224-.488.34L7.264 4.908a2.18 2.18 0 0 0-3.067.268l-.907 1.08a2.162 2.162 0 0 0-.5 1.59c.051.58.324 1.105.768 1.478l1.595 1.338a12.035 12.035 0 0 0-.889 2.457H2.177A2.18 2.18 0 0 0 0 15.295v1.41c0 1.2.977 2.177 2.177 2.177h2.096c.208.845.507 1.664.893 2.446l-1.607 1.35a2.162 2.162 0 0 0-.769 1.477c-.05.58.127 1.145.5 1.59l.907 1.08a2.174 2.174 0 0 0 3.067.268l1.613-1.353c.583.425 1.204.8 1.86 1.117a.806.806 0 0 0 .703-1.45ZM2.177 17.27a.565.565 0 0 1-.565-.564v-1.411c0-.312.254-.565.565-.565h1.809a12.173 12.173 0 0 0 .003 2.54H2.178Zm2.418-9.182a.56.56 0 0 1-.198-.384.56.56 0 0 1 .128-.412l.907-1.08a.563.563 0 0 1 .795-.07l1.378 1.155a12.062 12.062 0 0 0-1.632 1.947L4.595 8.088Zm1.633 17.77a.566.566 0 0 1-.796-.07l-.907-1.08a.56.56 0 0 1-.128-.412.56.56 0 0 1 .198-.384l1.394-1.17a12.131 12.131 0 0 0 1.635 1.945l-1.396 1.171Zm23.595-12.74h-2.085a12.008 12.008 0 0 0-.889-2.459l1.593-1.336a2.18 2.18 0 0 0 .268-3.067l-.907-1.08a2.18 2.18 0 0 0-3.067-.27l-1.592 1.337a12.34 12.34 0 0 0-.649-.444.806.806 0 1 0-.868 1.358 10.429 10.429 0 0 1 4.84 8.826c0 4.066-2.386 7.796-6.077 9.505a.806.806 0 1 0 .677 1.463 12.004 12.004 0 0 0 2.055-1.212l1.614 1.354a2.158 2.158 0 0 0 1.59.5 2.162 2.162 0 0 0 1.477-.768l.907-1.08a2.18 2.18 0 0 0-.268-3.068l-1.615-1.354c.383-.776.685-1.594.895-2.44h2.1A2.18 2.18 0 0 0 32 16.706v-1.411a2.18 2.18 0 0 0-2.177-2.177Zm-2.418 10.794c.239.2.27.557.07.796l-.907 1.08a.56.56 0 0 1-.383.198.56.56 0 0 1-.412-.128l-1.4-1.174a12.168 12.168 0 0 0 1.633-1.947l1.4 1.175ZM26.03 9.242a12.041 12.041 0 0 0-1.633-1.945l1.376-1.155a.565.565 0 0 1 .795.07l.907 1.08c.2.239.169.596-.07.796L26.03 9.242Zm4.358 7.463a.565.565 0 0 1-.565.565h-1.814a12 12 0 0 0 .005-2.54h1.809c.311 0 .565.253.565.565v1.41Zm-8.96-.722a5.4 5.4 0 0 0-2.568-4.613.806.806 0 0 1 .852-1.369 7.002 7.002 0 0 1 3.327 5.982 7.043 7.043 0 0 1-1.669 4.552.805.805 0 0 1-1.136.093.806.806 0 0 1-.093-1.136 5.43 5.43 0 0 0 1.286-3.509Zm-9.478 3.613a.806.806 0 1 1-1.203 1.074 7.03 7.03 0 0 1-1.786-4.687 7.032 7.032 0 0 1 3.73-6.214.806.806 0 0 1 .759 1.423 5.422 5.422 0 0 0-2.877 4.791c0 1.335.49 2.618 1.377 3.613Zm4.843-1.016a.808.808 0 0 0 .013-.149V8.447l2.925-1.689a.806.806 0 0 0 .403-.698V2.217a.806.806 0 0 0-.403-.698L18.067.56a.806.806 0 1 0-.806 1.396l1.26.728v2.912l-2.52 1.456-2.523-1.456V2.683l1.261-.728a.806.806 0 1 0-.806-1.397l-1.664.961a.806.806 0 0 0-.403.698V6.06c0 .288.153.554.403.698l2.925 1.69v9.983c0 .051.005.1.013.149a2.682 2.682 0 0 0-1.885 2.558v8.545c0 1.03.837 1.867 1.866 1.867h1.623a1.87 1.87 0 0 0 1.867-1.867v-8.545c0-1.2-.794-2.22-1.885-2.558Zm.273 11.103a.258.258 0 0 1-.255.254h-1.623a.257.257 0 0 1-.253-.254v-8.545a1.067 1.067 0 0 1 2.13 0v8.545Z" fill="#F6A700"/></g></g></g></g><defs><clipPath id="a"><path fill="#fff" d="M0 0h32v32H0z"/></clipPath><clipPath id="b"><path fill="#fff" d="M0 0h32v32H0z"/></clipPath><clipPath id="c"><path fill="#fff" d="M0 0h32v32H0z"/></clipPath><clipPath id="d"><path fill="#fff" d="M0 0h32v32H0z"/></clipPath></defs></svg>