<svg width="32" height="32" fill="none" xmlns="http://www.w3.org/2000/svg"><g clip-path="url(#a)"><g clip-path="url(#b)" fill="#F6A700"><path d="M29.91 1.024H9.744a2.089 2.089 0 0 0-2.089 2.088v5.64h2.09v-5.64H29.91v12.77h-3.377v2.089h3.377A2.089 2.089 0 0 0 32 15.88V3.113a2.089 2.089 0 0 0-2.09-2.088Z"/><path d="M22.256 10.84H2.09A2.089 2.089 0 0 0 0 12.93v12.769c0 1.154.935 2.089 2.089 2.089h6.429l2.056 2.445a2.09 2.09 0 0 0 3.197 0l2.056-2.445h6.43a2.085 2.085 0 0 0 2.088-2.089v-12.77a2.089 2.089 0 0 0-2.088-2.088Zm0 14.859h-7.401l-2.682 3.189-2.683-3.189h-7.4v-12.77h20.168V25.7Z"/><path d="M5.57 17.95h13.204a1.044 1.044 0 0 0 0-2.089H5.57a1.044 1.044 0 0 0 0 2.089Zm0 4.72h5.405a1.044 1.044 0 0 0 0-2.09H5.572a1.045 1.045 0 0 0 0 2.09Z"/></g></g><defs><clipPath id="a"><path fill="#fff" d="M0 0h32v32H0z"/></clipPath><clipPath id="b"><path fill="#fff" d="M0 0h32v32H0z"/></clipPath></defs></svg>