<svg width="18" height="18" fill="none" xmlns="http://www.w3.org/2000/svg"><circle cx="9" cy="9" r="9" fill="#23A1D1"/><path d="M7.98 7.898c-.44.432-.991.647-1.652.647-.661 0-1.217-.22-1.667-.66A2.193 2.193 0 0 1 4 6.272c0-.634.22-1.171.661-1.612.45-.439 1.006-.66 1.667-.66s1.212.22 1.653.661c.44.432.66.969.66 1.612 0 .643-.22 1.184-.66 1.625Zm-3.002 4.477 6.281-6.984.84.468-6.295 6.998-.826-.482Zm.716-5.469a.841.841 0 0 0 .62.248.84.84 0 0 0 .62-.248.888.888 0 0 0 .248-.633.841.841 0 0 0-.248-.62.84.84 0 0 0-.62-.248.841.841 0 0 0-.62.248.867.867 0 0 0-.234.62c0 .248.078.459.234.633Zm6.942 6.433c-.44.44-.991.661-1.652.661-.662 0-1.213-.22-1.653-.661a2.193 2.193 0 0 1-.662-1.612c0-.633.22-1.17.662-1.611.44-.441.991-.661 1.652-.661.662 0 1.213.22 1.653.66.441.441.662.979.662 1.612a2.19 2.19 0 0 1-.662 1.612Zm-2.272-.978a.841.841 0 0 0 .62.248c.247 0 .45-.087.605-.262a.871.871 0 0 0 .248-.62.841.841 0 0 0-.248-.62.776.776 0 0 0-.606-.261.819.819 0 0 0-.62.261.868.868 0 0 0-.233.62c0 .248.077.46.234.634Z" fill="#fff"/></svg>