<svg width="24" height="24" fill="none" xmlns="http://www.w3.org/2000/svg"><path d="M12 22C6.477 22 2 17.523 2 12S6.477 2 12 2s10 4.477 10 10-4.477 10-10 10Zm0-2a8 8 0 1 0 0-16.001A8 8 0 0 0 12 20Z" fill="#F6A700"/><path d="M17 14.456v1.964a.555.555 0 0 1-.517.554 9.078 9.078 0 0 1-.595.026A8.888 8.888 0 0 1 7 8.111c0-.153.008-.352.026-.594A.556.556 0 0 1 7.58 7h1.964a.278.278 0 0 1 .277.25 7.724 7.724 0 0 0 .707 2.53.253.253 0 0 1-.082.314l-1.199.857a7.248 7.248 0 0 0 3.802 3.802l.856-1.196a.257.257 0 0 1 .318-.083 7.722 7.722 0 0 0 2.528.705.278.278 0 0 1 .249.277Z" fill="#F6A700"/></svg>