<svg width="38" height="27" fill="none" xmlns="http://www.w3.org/2000/svg"><path d="M17.504 22.904c-1.704 2.376-4.092 3.564-7.164 3.564s-5.46-1.188-7.164-3.564C1.472 20.528.62 17.36.62 13.4s.852-7.128 2.556-9.504C4.88 1.52 7.268.332 10.34.332s5.46 1.188 7.164 3.564C19.208 6.272 20.06 9.44 20.06 13.4s-.852 7.128-2.556 9.504Zm-11.88-2.268c1.104 1.704 2.676 2.556 4.716 2.556s3.612-.852 4.716-2.556c1.128-1.704 1.692-4.116 1.692-7.236s-.564-5.532-1.692-7.236c-1.104-1.728-2.676-2.592-4.716-2.592s-3.612.852-4.716 2.556C4.52 7.832 3.968 10.256 3.968 13.4c0 3.12.552 5.532 1.656 7.236Zm21.164-4.308c-1.088 0-1.992-.36-2.712-1.08-.72-.72-1.08-1.6-1.08-2.64 0-1.024.36-1.896 1.08-2.616.736-.736 1.64-1.104 2.712-1.104 1.088 0 1.992.36 2.712 1.08.72.72 1.08 1.6 1.08 2.64s-.36 1.92-1.08 2.64c-.704.72-1.608 1.08-2.712 1.08Zm-1.392-2.304c.368.368.832.552 1.392.552.56 0 1.016-.192 1.368-.576.368-.384.552-.848.552-1.392 0-.544-.184-1-.552-1.368-.352-.384-.808-.576-1.368-.576s-1.024.192-1.392.576c-.352.368-.528.824-.528 1.368 0 .56.176 1.032.528 1.416Zm-1.272 9.6 11.16-12.48 1.176.648-11.184 12.504-1.152-.672Zm12.624 1.584c-.72.72-1.624 1.08-2.712 1.08s-1.992-.36-2.712-1.08c-.72-.72-1.08-1.6-1.08-2.64s.36-1.92 1.08-2.64c.72-.72 1.624-1.08 2.712-1.08s1.992.36 2.712 1.08c.72.72 1.08 1.6 1.08 2.64s-.36 1.92-1.08 2.64Zm-4.104-1.248c.368.368.832.552 1.392.552.56 0 1.016-.184 1.368-.552.368-.384.552-.848.552-1.392 0-.544-.184-1-.552-1.368-.352-.384-.808-.576-1.368-.576s-1.024.192-1.392.576c-.352.368-.528.824-.528 1.368 0 .544.176 1.008.528 1.392Z" fill="#F6A700"/></svg>