<svg width="62" height="11" fill="none" xmlns="http://www.w3.org/2000/svg"><g clip-path="url(#a)"><path d="M9.978 4.639a.455.455 0 0 0-.367-.31l-2.904-.422-1.3-2.631a.455.455 0 0 0-.815 0L3.294 3.907.389 4.33a.455.455 0 0 0-.252.776L2.24 7.153l-.496 2.893a.455.455 0 0 0 .66.48L5 9.16l2.598 1.365a.455.455 0 0 0 .655-.504l-.492-2.868 2.102-2.048a.455.455 0 0 0 .115-.466Z" fill="#F6A700"/></g><g clip-path="url(#b)"><path d="M35.978 4.639a.455.455 0 0 0-.367-.31l-2.904-.422-1.3-2.631a.455.455 0 0 0-.815 0l-1.298 2.631-2.905.422a.455.455 0 0 0-.252.776l2.102 2.048-.496 2.893a.455.455 0 0 0 .66.48L31 9.16l2.598 1.365a.455.455 0 0 0 .655-.504l-.492-2.868 2.102-2.048a.455.455 0 0 0 .115-.466Z" fill="#F6A700"/></g><g clip-path="url(#c)"><path d="M22.978 4.639a.455.455 0 0 0-.367-.31l-2.904-.422-1.3-2.631a.455.455 0 0 0-.815 0l-1.298 2.631-2.905.422a.455.455 0 0 0-.252.776l2.102 2.048-.496 2.893a.455.455 0 0 0 .66.48L18 9.16l2.598 1.365a.455.455 0 0 0 .655-.504l-.492-2.868 2.102-2.048a.455.455 0 0 0 .115-.466Z" fill="#F6A700"/></g><g clip-path="url(#d)"><path d="M48.978 4.639a.455.455 0 0 0-.367-.31l-2.904-.422-1.3-2.631a.455.455 0 0 0-.815 0l-1.298 2.631-2.905.422a.455.455 0 0 0-.252.776l2.102 2.048-.496 2.893a.455.455 0 0 0 .66.48L44 9.16l2.598 1.365a.455.455 0 0 0 .655-.504l-.492-2.868 2.102-2.048a.455.455 0 0 0 .115-.466Z" fill="#F6A700"/></g><g clip-path="url(#e)"><path d="M61.978 4.639a.455.455 0 0 0-.367-.31l-2.904-.422-1.3-2.631a.455.455 0 0 0-.815 0l-1.298 2.631-2.905.422a.455.455 0 0 0-.252.776l2.102 2.048-.496 2.893a.455.455 0 0 0 .66.48L57 9.16l2.598 1.365a.455.455 0 0 0 .655-.504l-.492-2.868 2.102-2.048a.455.455 0 0 0 .115-.466Z" fill="#F6A700"/></g><defs><clipPath id="a"><path fill="#fff" transform="translate(0 .8)" d="M0 0h10v10H0z"/></clipPath><clipPath id="b"><path fill="#fff" transform="translate(26 .8)" d="M0 0h10v10H0z"/></clipPath><clipPath id="c"><path fill="#fff" transform="translate(13 .8)" d="M0 0h10v10H0z"/></clipPath><clipPath id="d"><path fill="#fff" transform="translate(39 .8)" d="M0 0h10v10H0z"/></clipPath><clipPath id="e"><path fill="#fff" transform="translate(52 .8)" d="M0 0h10v10H0z"/></clipPath></defs></svg>